<svg width="74" height="77" viewBox="0 0 74 77" fill="none" xmlns="http://www.w3.org/2000/svg">
<path d="M37.2093 6.49122L37.9042 6.26508L37.678 5.57022L36.9832 5.79637L37.2093 6.49122ZM56.1363 64.6462L56.3624 65.341L57.0573 65.1149L56.8311 64.42L56.1363 64.6462ZM37.666 70.6575L36.9711 70.8836L37.1973 71.5785L37.8921 71.3523L37.666 70.6575ZM18.739 12.5025L18.5129 11.8076L17.818 12.0338L18.0442 12.7287L18.739 12.5025ZM61.882 21.6894L62.5768 21.4632L62.3507 20.7684L61.6558 20.9945L61.882 21.6894ZM67.1376 37.8377L67.3637 38.5325L68.0586 38.3064L67.8324 37.6115L67.1376 37.8377ZM12.8878 55.4937L12.1929 55.7198L12.419 56.4147L13.1139 56.1885L12.8878 55.4937ZM7.63218 39.3454L7.40603 38.6505L6.71118 38.8767L6.93732 39.5715L7.63218 39.3454ZM36.5144 6.71737L55.4414 64.8723L56.8311 64.42L37.9042 6.26508L36.5144 6.71737ZM55.9101 63.9513L37.4398 69.9626L37.8921 71.3523L56.3624 65.341L55.9101 63.9513ZM38.3608 70.4313L19.4339 12.2764L18.0442 12.7287L36.9711 70.8836L38.3608 70.4313ZM18.9652 13.1974L37.4354 7.18608L36.9832 5.79637L18.5129 11.8076L18.9652 13.1974ZM61.1871 21.9155L66.4427 38.0638L67.8324 37.6115L62.5768 21.4632L61.1871 21.9155ZM66.9114 37.1428L12.6616 54.7988L13.1139 56.1885L67.3637 38.5325L66.9114 37.1428ZM13.5826 55.2675L8.32704 39.1192L6.93732 39.5715L12.1929 55.7198L13.5826 55.2675ZM7.85833 40.0402L62.1081 22.3842L61.6558 20.9945L7.40603 38.6505L7.85833 40.0402Z" fill="#FBFF2B"/>
</svg>
