<svg width="100" height="40" viewBox="0 0 100 40" fill="none" xmlns="http://www.w3.org/2000/svg">
<g clip-path="url(#clip0_639_564)">
<path d="M13.3553 14.3228C15.6536 14.3228 17.5167 12.4596 17.5167 10.1614C17.5167 7.86311 15.6536 6 13.3553 6C11.057 6 9.19391 7.86311 9.19391 10.1614C9.19391 12.4596 11.057 14.3228 13.3553 14.3228Z" fill="#FBFF2B"/>
<path d="M25.4158 9.96061L25.4018 9.91602C25.4018 9.91602 22.7261 14.0969 16.7976 16.2626C9.31098 19.0164 2 18.2137 2 18.2137C10.6879 21.3717 14.735 28.2478 16.5857 34.692C21.8481 30.2742 24.351 25.2153 25.5356 21.2239C26.6229 17.542 26.5811 13.6186 25.4158 9.96061Z" fill="#FBFF2B"/>
</g>
<path d="M38.953 22.563C38.7945 23.0969 38.5443 23.5432 38.2023 23.9019C37.8602 24.2606 37.4557 24.5275 36.9885 24.7027C36.5214 24.8779 36.0084 24.9655 35.4495 24.9655C34.632 24.9655 33.9229 24.7945 33.3223 24.4524C32.73 24.1104 32.2712 23.6224 31.9459 22.9884C31.6289 22.3545 31.4704 21.5954 31.4704 20.7111C31.4704 19.8269 31.6289 19.0678 31.9459 18.4338C32.2712 17.7998 32.73 17.3118 33.3223 16.9698C33.9229 16.6278 34.6236 16.4568 35.4244 16.4568C35.9917 16.4568 36.5047 16.536 36.9635 16.6945C37.4223 16.8447 37.8102 17.0782 38.1272 17.3952C38.4525 17.7122 38.6903 18.1126 38.8404 18.5965L37.2763 19.2596C37.1345 18.7591 36.9176 18.4046 36.6257 18.196C36.3337 17.9792 35.9583 17.8707 35.4995 17.8707C35.049 17.8707 34.6528 17.9792 34.3108 18.196C33.9771 18.4129 33.7185 18.7341 33.535 19.1595C33.3515 19.5766 33.2597 20.0938 33.2597 20.7111C33.2597 21.3201 33.3431 21.8373 33.51 22.2627C33.6852 22.6881 33.9396 23.0093 34.2733 23.2262C34.6069 23.4431 35.0157 23.5515 35.4995 23.5515C35.95 23.5515 36.3379 23.4306 36.6632 23.1886C36.9969 22.9467 37.2304 22.5797 37.3639 22.0875L38.953 22.563ZM43.8157 20.8488C43.8157 20.4901 43.7114 20.2106 43.5029 20.0104C43.3027 19.8102 43.0357 19.7101 42.7021 19.7101C42.3934 19.7101 42.1223 19.7893 41.8887 19.9478C41.6552 20.1063 41.4842 20.3691 41.3757 20.7361L39.9117 20.2857C40.0535 19.7351 40.3622 19.293 40.8377 18.9593C41.3215 18.6257 41.968 18.4588 42.7771 18.4588C43.3277 18.4588 43.8074 18.5464 44.2161 18.7216C44.6249 18.8884 44.9419 19.1428 45.1671 19.4849C45.4007 19.8269 45.5174 20.2565 45.5174 20.7737V23.3138C45.5174 23.6308 45.6676 23.7893 45.9679 23.7893C46.1097 23.7893 46.2432 23.7684 46.3683 23.7267L46.2682 24.7903C46.0513 24.8987 45.7802 24.9529 45.4549 24.9529C45.1629 24.9529 44.9001 24.9029 44.6666 24.8028C44.433 24.7027 44.2495 24.5525 44.116 24.3523C43.9825 24.1438 43.9158 23.8852 43.9158 23.5765V23.5265L44.2161 23.4764C44.1661 23.7934 44.0284 24.0645 43.8032 24.2898C43.578 24.5067 43.3027 24.6735 42.9774 24.7903C42.6604 24.9071 42.3309 24.9655 41.9888 24.9655C41.5634 24.9655 41.1964 24.9029 40.8877 24.7778C40.5791 24.6443 40.3413 24.4524 40.1745 24.2022C40.0077 23.9519 39.9242 23.6433 39.9242 23.2762C39.9242 22.8091 40.0744 22.4295 40.3747 22.1376C40.675 21.8373 41.1046 21.6329 41.6635 21.5244L44.0159 21.049L44.0034 22.1125L42.5019 22.4129C42.2182 22.4712 42.0014 22.5505 41.8512 22.6506C41.7094 22.7424 41.6385 22.8967 41.6385 23.1136C41.6385 23.3221 41.7136 23.4806 41.8637 23.5891C42.0222 23.6975 42.2099 23.7517 42.4268 23.7517C42.602 23.7517 42.773 23.7309 42.9398 23.6892C43.1067 23.6474 43.2568 23.5807 43.3903 23.489C43.5237 23.3972 43.628 23.2721 43.7031 23.1136C43.7782 22.9551 43.8157 22.7632 43.8157 22.538V20.8488ZM47.4346 24.8403V18.5839H48.9237L49.0363 19.8102C49.2031 19.3764 49.445 19.0427 49.762 18.8092C50.0873 18.5756 50.4919 18.4588 50.9758 18.4588C51.1176 18.4588 51.2469 18.4713 51.3636 18.4964C51.4804 18.5214 51.5764 18.5547 51.6514 18.5965L51.4512 20.0354C51.3678 20.0021 51.2635 19.977 51.1384 19.9603C51.0216 19.9437 50.8673 19.9353 50.6754 19.9353C50.4252 19.9353 50.1833 19.9979 49.9497 20.123C49.7161 20.2398 49.5243 20.4233 49.3741 20.6736C49.224 20.9155 49.1489 21.2241 49.1489 21.5995V24.8403H47.4346ZM55.4942 24.9655C54.8352 24.9655 54.2596 24.8362 53.7675 24.5776C53.2836 24.319 52.9083 23.9478 52.6413 23.4639C52.3744 22.9801 52.2409 22.3962 52.2409 21.7121C52.2409 21.0281 52.3744 20.4442 52.6413 19.9603C52.9083 19.4765 53.2795 19.1053 53.755 18.8467C54.2388 18.5881 54.7893 18.4588 55.4066 18.4588C56.0406 18.4588 56.5787 18.5881 57.0208 18.8467C57.4629 19.097 57.8008 19.4432 58.0343 19.8853C58.2679 20.319 58.3847 20.8154 58.3847 21.3743C58.3847 21.5411 58.3805 21.6996 58.3722 21.8498C58.3638 21.9999 58.3513 22.1334 58.3346 22.2502H53.342V21.0615H57.5839L56.758 21.3618C56.758 20.8362 56.6371 20.4317 56.3952 20.148C56.1616 19.8644 55.8279 19.7226 55.3941 19.7226C55.0771 19.7226 54.8019 19.7977 54.5683 19.9478C54.3431 20.098 54.172 20.3232 54.0553 20.6235C53.9385 20.9155 53.8801 21.2867 53.8801 21.7372C53.8801 22.1793 53.9426 22.5463 54.0678 22.8383C54.2012 23.1219 54.3848 23.3346 54.6183 23.4764C54.8603 23.6183 55.148 23.6892 55.4817 23.6892C55.8488 23.6892 56.1449 23.6183 56.3701 23.4764C56.5954 23.3346 56.7705 23.1386 56.8957 22.8883L58.2596 23.4139C58.1261 23.7392 57.9217 24.0187 57.6464 24.2522C57.3795 24.4858 57.0583 24.6652 56.6829 24.7903C56.3159 24.9071 55.9197 24.9655 55.4942 24.9655ZM66.145 17.9708H61.6905V20.073H65.2066V21.4619H61.6905V24.8403H59.9637V16.5819H66.145V17.9708ZM68.3136 17.683C67.9549 17.683 67.6879 17.6079 67.5128 17.4578C67.3376 17.2993 67.25 17.0699 67.25 16.7696C67.25 16.4609 67.3376 16.2315 67.5128 16.0814C67.6879 15.9229 67.9549 15.8436 68.3136 15.8436C68.6723 15.8436 68.9392 15.9229 69.1144 16.0814C69.2896 16.2315 69.3772 16.4609 69.3772 16.7696C69.3772 17.0699 69.2896 17.2993 69.1144 17.4578C68.9392 17.6079 68.6723 17.683 68.3136 17.683ZM69.1644 18.5839V24.8403H67.4502V18.5839H69.1644ZM70.9816 24.8403V18.5839H72.5207L72.6208 20.4609L72.4081 20.2607C72.5082 19.8519 72.6667 19.5141 72.8836 19.2471C73.1005 18.9802 73.3632 18.7841 73.6719 18.659C73.9889 18.5256 74.3351 18.4588 74.7104 18.4588C75.1442 18.4588 75.5279 18.5422 75.8616 18.7091C76.2036 18.8759 76.4706 19.1303 76.6624 19.4724C76.8626 19.806 76.9627 20.2273 76.9627 20.7361V24.8403H75.2485V21.2241C75.2485 20.6903 75.1442 20.3232 74.9357 20.123C74.7271 19.9145 74.456 19.8102 74.1223 19.8102C73.8888 19.8102 73.6594 19.8686 73.4341 19.9854C73.2172 20.0938 73.0379 20.2732 72.8961 20.5234C72.7626 20.7737 72.6959 21.1074 72.6959 21.5244V24.8403H70.9816ZM81.0937 24.9655C80.5765 24.9655 80.1135 24.8362 79.7048 24.5776C79.3044 24.319 78.9874 23.9478 78.7538 23.4639C78.5286 22.9801 78.416 22.4003 78.416 21.7247C78.416 21.0323 78.5369 20.4442 78.7788 19.9603C79.0208 19.4682 79.3461 19.097 79.7548 18.8467C80.1719 18.5881 80.6391 18.4588 81.1563 18.4588C81.7068 18.4588 82.1615 18.6173 82.5202 18.9343C82.8789 19.2513 83.1124 19.66 83.2209 20.1606L83.0582 20.3608V15.8436H84.7725V24.8403H83.2334L83.1208 22.9384L83.3335 23.0385C83.2751 23.4306 83.1416 23.7726 82.9331 24.0645C82.7245 24.3482 82.4618 24.5692 82.1448 24.7277C81.8278 24.8862 81.4774 24.9655 81.0937 24.9655ZM81.5942 23.6516C81.8945 23.6516 82.1531 23.5765 82.37 23.4264C82.5869 23.2679 82.7537 23.0385 82.8705 22.7382C82.9956 22.4379 83.0582 22.0792 83.0582 21.6621C83.0582 21.2617 82.9998 20.9238 82.883 20.6486C82.7662 20.3649 82.5994 20.148 82.3825 19.9979C82.1656 19.8477 81.9112 19.7727 81.6192 19.7727C81.1521 19.7727 80.7851 19.9395 80.5181 20.2732C80.2595 20.5985 80.1302 21.0782 80.1302 21.7121C80.1302 22.3461 80.2595 22.8299 80.5181 23.1636C80.7767 23.489 81.1354 23.6516 81.5942 23.6516ZM89.4767 24.9655C88.8177 24.9655 88.2421 24.8362 87.7499 24.5776C87.2661 24.319 86.8907 23.9478 86.6238 23.4639C86.3568 22.9801 86.2234 22.3962 86.2234 21.7121C86.2234 21.0281 86.3568 20.4442 86.6238 19.9603C86.8907 19.4765 87.2619 19.1053 87.7374 18.8467C88.2212 18.5881 88.7718 18.4588 89.3891 18.4588C90.0231 18.4588 90.5611 18.5881 91.0032 18.8467C91.4454 19.097 91.7832 19.4432 92.0168 19.8853C92.2503 20.319 92.3671 20.8154 92.3671 21.3743C92.3671 21.5411 92.363 21.6996 92.3546 21.8498C92.3463 21.9999 92.3338 22.1334 92.3171 22.2502H87.3245V21.0615H91.5663L90.7405 21.3618C90.7405 20.8362 90.6195 20.4317 90.3776 20.148C90.144 19.8644 89.8104 19.7226 89.3766 19.7226C89.0596 19.7226 88.7843 19.7977 88.5507 19.9478C88.3255 20.098 88.1545 20.3232 88.0377 20.6235C87.9209 20.9155 87.8625 21.2867 87.8625 21.7372C87.8625 22.1793 87.9251 22.5463 88.0502 22.8383C88.1837 23.1219 88.3672 23.3346 88.6008 23.4764C88.8427 23.6183 89.1305 23.6892 89.4642 23.6892C89.8312 23.6892 90.1273 23.6183 90.3526 23.4764C90.5778 23.3346 90.753 23.1386 90.8781 22.8883L92.242 23.4139C92.1085 23.7392 91.9042 24.0187 91.6289 24.2522C91.3619 24.4858 91.0408 24.6652 90.6654 24.7903C90.2984 24.9071 89.9021 24.9655 89.4767 24.9655ZM93.8199 24.8403V18.5839H95.3089L95.4215 19.8102C95.5884 19.3764 95.8303 19.0427 96.1473 18.8092C96.4726 18.5756 96.8772 18.4588 97.361 18.4588C97.5028 18.4588 97.6321 18.4713 97.7489 18.4964C97.8657 18.5214 97.9616 18.5547 98.0367 18.5965L97.8365 20.0354C97.7531 20.0021 97.6488 19.977 97.5237 19.9603C97.4069 19.9437 97.2526 19.9353 97.0607 19.9353C96.8104 19.9353 96.5685 19.9979 96.335 20.123C96.1014 20.2398 95.9095 20.4233 95.7594 20.6736C95.6092 20.9155 95.5341 21.2241 95.5341 21.5995V24.8403H93.8199Z" fill="#EDF9FC"/>
<defs>
<clipPath id="clip0_639_564">
<rect width="24.3216" height="28.6809" fill="white" transform="translate(2 6)"/>
</clipPath>
</defs>
</svg>
